<?xml version="1.0" encoding="UTF-8"?>
<svg xmlns="http://www.w3.org/2000/svg" xmlns:xlink="http://www.w3.org/1999/xlink" width="2343.75pt" height="2343.749891pt" viewBox="0 0 2343.75 2343.749891" version="1.2">
<g id="surface1">
<path style=" stroke:none;fill-rule:nonzero;fill:rgb(82.749939%,61.569214%,36.468506%);fill-opacity:1;" d="M 1749.019531 1375.5 C 1749.019531 1456.746094 1732.746094 1526.191406 1700.191406 1583.835938 C 1667.777344 1641.34375 1626 1688 1574.867188 1723.808594 C 1523.664062 1759.480469 1465.953125 1785.386719 1401.800781 1801.660156 C 1337.78125 1817.9375 1274.03125 1826.074219 1210.554688 1826.074219 C 1145.585938 1826.074219 1089.570312 1819.566406 1042.371094 1806.542969 C 995.304688 1793.523438 952.375 1781.316406 913.519531 1769.921875 C 887.476562 1761.785156 863.875 1754.9375 842.71875 1749.308594 C 821.695312 1743.746094 800.671875 1740.898438 779.511719 1740.898438 L 779.511719 1463.121094 L 803.925781 1463.121094 C 803.925781 1524.832031 819.726562 1573.933594 851.398438 1610.417969 C 883 1646.972656 919.890625 1674.980469 962.074219 1694.511719 C 1004.390625 1714.042969 1046.574219 1726.722656 1088.757812 1732.488281 C 1131.074219 1738.117188 1162 1740.898438 1181.53125 1740.898438 C 1251.3125 1740.898438 1311.332031 1730.792969 1361.652344 1710.515625 C 1412.105469 1690.101562 1453.476562 1663.246094 1485.890625 1629.949219 C 1518.445312 1596.71875 1542.382812 1559.828125 1557.777344 1519.273438 C 1573.105469 1478.582031 1580.835938 1437.078125 1580.835938 1394.761719 C 1580.835938 1341.253906 1569.441406 1296.222656 1546.65625 1259.671875 C 1524.003906 1223.183594 1494.4375 1191.175781 1457.953125 1163.640625 C 1421.398438 1135.972656 1379.554688 1112.371094 1332.355469 1092.839844 C 1285.289062 1073.308594 1237.480469 1053.777344 1188.855469 1034.246094 C 1133.515625 1013.292969 1079.058594 991.386719 1025.550781 968.601562 C 971.976562 945.8125 924.097656 917.804688 881.78125 884.507812 C 839.597656 851.277344 805.554688 811.46875 779.511719 765.148438 C 753.46875 718.898438 740.449219 661.660156 740.449219 593.4375 C 740.449219 522.027344 754.285156 459.90625 781.953125 407.078125 C 809.621094 354.316406 846.515625 310.914062 892.628906 276.867188 C 938.882812 242.6875 991.710938 217.121094 1051.050781 200.101562 C 1110.320312 182.941406 1170.816406 174.328125 1232.527344 174.328125 C 1274.847656 174.328125 1314.585938 177.246094 1351.886719 183.011719 C 1389.320312 188.640625 1424.992188 195.488281 1459.035156 203.625 C 1486.707031 210.136719 1513.425781 215.496094 1539.332031 219.632812 C 1565.371094 223.632812 1590.601562 225.597656 1615.015625 225.597656 L 1615.015625 476.519531 L 1590.601562 476.519531 C 1587.34375 392.089844 1554.046875 334.851562 1490.773438 304.808594 C 1427.433594 274.832031 1339.746094 259.777344 1227.644531 259.777344 C 1162.675781 259.777344 1109.507812 270.765625 1068.140625 292.601562 C 1026.703125 314.507812 993.8125 341.292969 969.398438 372.898438 C 945.121094 404.566406 928.503906 438.679688 919.484375 475.164062 C 910.601562 511.71875 906.195312 543.796875 906.195312 571.464844 C 906.195312 617.039062 916.296875 656.101562 936.574219 688.652344 C 956.785156 721.070312 984.046875 749.417969 1018.226562 773.832031 C 1052.40625 798.109375 1091.742188 819.945312 1136.226562 839.476562 C 1180.851562 859.007812 1227.644531 877.65625 1276.472656 895.359375 C 1331.609375 916.515625 1387.558594 939.304688 1444.386719 963.71875 C 1501.355469 988.132812 1552.148438 1018.242188 1596.839844 1054.050781 C 1641.464844 1089.722656 1678.015625 1133.460938 1706.433594 1185.34375 C 1734.78125 1237.289062 1749.019531 1300.632812 1749.019531 1375.5 Z M 1749.019531 1375.5 "/>
<path style=" stroke:none;fill-rule:nonzero;fill:rgb(82.749939%,61.569214%,36.468506%);fill-opacity:1;" d="M 1303.316406 577.117188 C 1183.214844 577.117188 1078.84375 598.679688 990.277344 641.675781 C 901.84375 684.742188 828.328125 740.824219 769.734375 809.863281 C 711.277344 878.765625 667.875 956.28125 639.527344 1042.339844 C 611.113281 1128.464844 596.9375 1213.710938 596.9375 1298.144531 C 596.9375 1394.039062 615.519531 1487.761719 652.820312 1579.449219 C 690.253906 1671.136719 741.792969 1752.382812 807.441406 1823.046875 C 873.222656 1893.78125 949.992188 1950.679688 1037.746094 1993.671875 C 1125.433594 2036.738281 1220.445312 2058.234375 1322.847656 2058.234375 C 1352.144531 2058.234375 1386.664062 2054.980469 1426.472656 2048.46875 C 1466.214844 2041.960938 1505.546875 2029.414062 1544.476562 2010.761719 C 1583.539062 1991.976562 1619.683594 1965.597656 1652.980469 1931.554688 C 1686.210938 1897.375 1711.847656 1852.75 1729.75 1797.546875 L 1753.894531 1797.546875 L 1753.894531 2067.730469 C 1729.613281 2067.730469 1704.046875 2070.984375 1677.125 2077.496094 C 1650.335938 2084.003906 1620.769531 2091.328125 1588.421875 2099.46875 C 1546.101562 2110.859375 1499.308594 2121.441406 1448.175781 2131.207031 C 1396.972656 2140.972656 1342.992188 2145.855469 1286.226562 2145.855469 C 1144.964844 2145.855469 1020.726562 2121.507812 913.507812 2072.882812 C 806.425781 2024.054688 717.109375 1960.714844 645.496094 1882.726562 C 574.015625 1804.804688 520.441406 1716.710938 484.632812 1618.511719 C 448.960938 1520.175781 431.195312 1420.6875 431.195312 1320.117188 C 431.195312 1219.410156 448.960938 1119.515625 484.632812 1020.367188 C 520.441406 921.285156 574.828125 832.378906 647.9375 753.710938 C 721.179688 674.90625 812.933594 611.160156 923.273438 562.46875 C 1033.746094 513.640625 1163.683594 489.226562 1313.082031 489.226562 C 1366.589844 489.226562 1414.875 494.109375 1457.941406 503.875 C 1500.9375 513.640625 1539.59375 523.40625 1573.773438 533.171875 C 1598.1875 541.308594 1620.496094 547.480469 1640.773438 551.617188 C 1660.984375 555.617188 1680.921875 557.585938 1700.453125 557.585938 L 1700.453125 828.039062 L 1676.039062 828.039062 C 1666.273438 777.582031 1648.371094 735.738281 1622.328125 702.441406 C 1596.421875 669.210938 1566.039062 643.710938 1531.183594 625.945312 C 1496.257812 608.039062 1458.890625 595.492188 1419.148438 588.238281 C 1379.339844 580.84375 1340.753906 577.117188 1303.316406 577.117188 Z M 1303.316406 577.117188 "/>
<path style=" stroke:none;fill-rule:nonzero;fill:rgb(82.749939%,61.569214%,36.468506%);fill-opacity:1;" d="M 789.734375 2208.949219 L 699.671875 2179.652344 L 1386.519531 320.929688 L 1476.851562 345.34375 Z M 789.734375 2208.949219 "/>
</g>
</svg>
