<?xml version="1.0" encoding="UTF-8"?>
<svg xmlns="http://www.w3.org/2000/svg" xmlns:xlink="http://www.w3.org/1999/xlink" width="384pt" height="308.999992pt" viewBox="0 0 384 308.999992" version="1.2">
<g id="surface1">
<path style=" stroke:none;fill-rule:nonzero;fill:rgb(82.749939%,61.569214%,36.468506%);fill-opacity:1;" d="M 268.089844 181.347656 C 268.089844 192.058594 265.945312 201.214844 261.652344 208.8125 C 257.378906 216.394531 251.871094 222.546875 245.128906 227.265625 C 238.378906 231.96875 230.769531 235.386719 222.3125 237.53125 C 213.871094 239.675781 205.46875 240.75 197.101562 240.75 C 188.535156 240.75 181.148438 239.890625 174.925781 238.175781 C 168.722656 236.457031 163.0625 234.847656 157.9375 233.347656 C 154.503906 232.273438 151.394531 231.371094 148.605469 230.628906 C 145.832031 229.894531 143.058594 229.519531 140.269531 229.519531 L 140.269531 192.898438 L 143.488281 192.898438 C 143.488281 201.035156 145.574219 207.507812 149.75 212.316406 C 153.914062 217.136719 158.777344 220.828125 164.339844 223.40625 C 169.917969 225.980469 175.480469 227.652344 181.042969 228.410156 C 186.621094 229.152344 190.699219 229.519531 193.273438 229.519531 C 202.472656 229.519531 210.386719 228.1875 217.019531 225.515625 C 223.671875 222.824219 229.125 219.28125 233.398438 214.894531 C 237.691406 210.511719 240.847656 205.648438 242.878906 200.300781 C 244.898438 194.9375 245.917969 189.464844 245.917969 183.886719 C 245.917969 176.832031 244.414062 170.894531 241.410156 166.074219 C 238.425781 161.265625 234.527344 157.042969 229.714844 153.414062 C 224.898438 149.765625 219.378906 146.65625 213.15625 144.082031 C 206.953125 141.503906 200.648438 138.929688 194.238281 136.355469 C 186.941406 133.59375 179.761719 130.703125 172.707031 127.699219 C 165.644531 124.695312 159.332031 121.003906 153.753906 116.613281 C 148.191406 112.230469 143.703125 106.984375 140.269531 100.878906 C 136.835938 94.78125 135.121094 87.234375 135.121094 78.238281 C 135.121094 68.824219 136.945312 60.632812 140.59375 53.667969 C 144.242188 46.714844 149.105469 40.992188 155.183594 36.503906 C 161.28125 31.996094 168.246094 28.625 176.070312 26.382812 C 183.886719 24.117188 191.859375 22.984375 199.996094 22.984375 C 205.574219 22.984375 210.816406 23.367188 215.734375 24.128906 C 220.667969 24.871094 225.371094 25.773438 229.859375 26.847656 C 233.507812 27.703125 237.03125 28.410156 240.445312 28.957031 C 243.878906 29.484375 247.203125 29.742188 250.421875 29.742188 L 250.421875 62.824219 L 247.203125 62.824219 C 246.777344 51.691406 242.386719 44.148438 234.042969 40.1875 C 225.691406 36.234375 214.132812 34.25 199.351562 34.25 C 190.789062 34.25 183.777344 35.699219 178.324219 38.578125 C 172.859375 41.464844 168.523438 44.996094 165.304688 49.164062 C 162.105469 53.339844 159.914062 57.835938 158.726562 62.644531 C 157.554688 67.464844 156.972656 71.695312 156.972656 75.34375 C 156.972656 81.351562 158.304688 86.5 160.976562 90.792969 C 163.640625 95.066406 167.238281 98.804688 171.742188 102.023438 C 176.25 105.222656 181.433594 108.101562 187.300781 110.675781 C 193.183594 113.25 199.351562 115.710938 205.789062 118.042969 C 213.058594 120.832031 220.4375 123.835938 227.929688 127.054688 C 235.4375 130.273438 242.136719 134.246094 248.027344 138.964844 C 253.910156 143.667969 258.730469 149.4375 262.476562 156.277344 C 266.214844 163.125 268.089844 171.476562 268.089844 181.347656 Z M 268.089844 181.347656 "/>
<path style=" stroke:none;fill-rule:nonzero;fill:rgb(82.749939%,61.569214%,36.468506%);fill-opacity:1;" d="M 209.328125 76.085938 C 193.496094 76.085938 179.734375 78.929688 168.058594 84.597656 C 156.398438 90.277344 146.707031 97.671875 138.980469 106.773438 C 131.273438 115.855469 125.550781 126.074219 121.816406 137.421875 C 118.070312 148.777344 116.199219 160.015625 116.199219 171.148438 C 116.199219 183.789062 118.648438 196.144531 123.566406 208.234375 C 128.503906 220.324219 135.296875 231.035156 143.953125 240.351562 C 152.625 249.675781 162.746094 257.175781 174.316406 262.847656 C 185.878906 268.523438 198.402344 271.359375 211.90625 271.359375 C 215.765625 271.359375 220.316406 270.929688 225.566406 270.070312 C 230.804688 269.210938 235.992188 267.558594 241.125 265.097656 C 246.273438 262.621094 251.039062 259.144531 255.429688 254.65625 C 259.808594 250.148438 263.191406 244.265625 265.550781 236.988281 L 268.734375 236.988281 L 268.734375 272.609375 C 265.53125 272.609375 262.160156 273.039062 258.613281 273.898438 C 255.082031 274.753906 251.183594 275.722656 246.917969 276.792969 C 241.339844 278.296875 235.167969 279.691406 228.425781 280.976562 C 221.675781 282.265625 214.558594 282.910156 207.078125 282.910156 C 188.453125 282.910156 172.074219 279.699219 157.9375 273.289062 C 143.820312 266.851562 132.042969 258.5 122.601562 248.21875 C 113.179688 237.945312 106.113281 226.332031 101.394531 213.382812 C 96.691406 200.421875 94.347656 187.304688 94.347656 174.042969 C 94.347656 160.765625 96.691406 147.597656 101.394531 134.523438 C 106.113281 121.460938 113.285156 109.742188 122.925781 99.371094 C 132.582031 88.980469 144.675781 80.574219 159.222656 74.15625 C 173.789062 67.71875 190.921875 64.5 210.617188 64.5 C 217.671875 64.5 224.039062 65.144531 229.714844 66.429688 C 235.382812 67.71875 240.480469 69.003906 244.984375 70.292969 C 248.203125 71.367188 251.144531 72.179688 253.820312 72.726562 C 256.484375 73.253906 259.113281 73.511719 261.6875 73.511719 L 261.6875 109.167969 L 258.46875 109.167969 C 257.179688 102.515625 254.820312 97 251.386719 92.609375 C 247.972656 88.230469 243.964844 84.867188 239.371094 82.523438 C 234.765625 80.164062 229.839844 78.511719 224.601562 77.554688 C 219.351562 76.578125 214.265625 76.085938 209.328125 76.085938 Z M 209.328125 76.085938 "/>
<path style=" stroke:none;fill-rule:nonzero;fill:rgb(82.749939%,61.569214%,36.468506%);fill-opacity:1;" d="M 141.617188 291.226562 L 129.746094 287.367188 L 220.300781 42.3125 L 232.207031 45.53125 Z M 141.617188 291.226562 "/>
</g>
</svg>
