<?xml version="1.0" encoding="UTF-8"?>
<svg xmlns="http://www.w3.org/2000/svg" xmlns:xlink="http://www.w3.org/1999/xlink" width="48pt" height="48pt" viewBox="0 0 48 48" version="1.2">
<g id="surface1">
<path style=" stroke:none;fill-rule:nonzero;fill:rgb(82.749939%,61.569214%,36.468506%);fill-opacity:1;" d="M 33.050781 26.613281 C 33.050781 27.90625 32.792969 29.011719 32.273438 29.929688 C 31.757812 30.847656 31.089844 31.589844 30.277344 32.160156 C 29.460938 32.726562 28.542969 33.140625 27.519531 33.398438 C 26.5 33.660156 25.484375 33.789062 24.472656 33.789062 C 23.4375 33.789062 22.546875 33.683594 21.796875 33.476562 C 21.046875 33.269531 20.363281 33.074219 19.742188 32.894531 C 19.328125 32.765625 18.953125 32.65625 18.613281 32.566406 C 18.28125 32.476562 17.945312 32.433594 17.609375 32.433594 L 17.609375 28.007812 L 17.996094 28.007812 C 17.996094 28.988281 18.25 29.773438 18.753906 30.351562 C 19.257812 30.9375 19.84375 31.382812 20.515625 31.691406 C 21.191406 32.003906 21.863281 32.207031 22.535156 32.296875 C 23.207031 32.386719 23.699219 32.433594 24.011719 32.433594 C 25.125 32.433594 26.078125 32.269531 26.878906 31.949219 C 27.683594 31.621094 28.34375 31.195312 28.859375 30.664062 C 29.378906 30.136719 29.757812 29.546875 30.003906 28.902344 C 30.25 28.253906 30.371094 27.59375 30.371094 26.917969 C 30.371094 26.066406 30.191406 25.347656 29.828125 24.765625 C 29.464844 24.183594 28.996094 23.675781 28.414062 23.238281 C 27.832031 22.796875 27.164062 22.421875 26.414062 22.109375 C 25.664062 21.796875 24.902344 21.488281 24.128906 21.175781 C 23.246094 20.84375 22.378906 20.492188 21.527344 20.128906 C 20.675781 19.765625 19.910156 19.320312 19.238281 18.789062 C 18.566406 18.261719 18.023438 17.628906 17.609375 16.890625 C 17.195312 16.152344 16.984375 15.242188 16.984375 14.15625 C 16.984375 13.015625 17.207031 12.027344 17.648438 11.1875 C 18.085938 10.347656 18.675781 9.65625 19.410156 9.113281 C 20.148438 8.566406 20.988281 8.160156 21.933594 7.890625 C 22.878906 7.617188 23.839844 7.480469 24.824219 7.480469 C 25.5 7.480469 26.132812 7.523438 26.726562 7.617188 C 27.320312 7.707031 27.890625 7.816406 28.433594 7.945312 C 28.871094 8.050781 29.296875 8.132812 29.710938 8.199219 C 30.125 8.265625 30.527344 8.296875 30.917969 8.296875 L 30.917969 12.292969 L 30.527344 12.292969 C 30.476562 10.949219 29.945312 10.035156 28.9375 9.558594 C 27.929688 9.078125 26.53125 8.839844 24.746094 8.839844 C 23.710938 8.839844 22.863281 9.015625 22.207031 9.363281 C 21.546875 9.710938 21.023438 10.136719 20.632812 10.640625 C 20.246094 11.144531 19.980469 11.691406 19.835938 12.269531 C 19.695312 12.851562 19.625 13.363281 19.625 13.804688 C 19.625 14.53125 19.785156 15.152344 20.109375 15.671875 C 20.433594 16.1875 20.867188 16.640625 21.410156 17.027344 C 21.953125 17.414062 22.582031 17.761719 23.289062 18.074219 C 24 18.382812 24.746094 18.683594 25.523438 18.964844 C 26.402344 19.300781 27.292969 19.664062 28.199219 20.050781 C 29.105469 20.441406 29.914062 20.921875 30.625 21.492188 C 31.335938 22.058594 31.921875 22.757812 32.371094 23.582031 C 32.824219 24.410156 33.050781 25.417969 33.050781 26.613281 Z M 33.050781 26.613281 "/>
<path style=" stroke:none;fill-rule:nonzero;fill:rgb(82.749939%,61.569214%,36.468506%);fill-opacity:1;" d="M 25.953125 13.894531 C 24.039062 13.894531 22.375 14.238281 20.964844 14.921875 C 19.558594 15.609375 18.386719 16.503906 17.453125 17.601562 C 16.519531 18.699219 15.828125 19.933594 15.378906 21.304688 C 14.925781 22.675781 14.699219 24.035156 14.699219 25.378906 C 14.699219 26.90625 14.996094 28.398438 15.589844 29.859375 C 16.1875 31.320312 17.007812 32.613281 18.054688 33.738281 C 19.101562 34.867188 20.324219 35.773438 21.722656 36.457031 C 23.117188 37.144531 24.632812 37.488281 26.261719 37.488281 C 26.730469 37.488281 27.277344 37.433594 27.914062 37.332031 C 28.546875 37.226562 29.171875 37.027344 29.792969 36.730469 C 30.414062 36.429688 30.992188 36.011719 31.519531 35.46875 C 32.050781 34.925781 32.457031 34.214844 32.742188 33.335938 L 33.128906 33.335938 L 33.128906 37.636719 C 32.742188 37.636719 32.335938 37.691406 31.90625 37.792969 C 31.480469 37.898438 31.007812 38.011719 30.492188 38.144531 C 29.820312 38.324219 29.074219 38.492188 28.257812 38.648438 C 27.441406 38.804688 26.582031 38.882812 25.679688 38.882812 C 23.429688 38.882812 21.449219 38.496094 19.742188 37.71875 C 18.035156 36.941406 16.613281 35.933594 15.472656 34.691406 C 14.335938 33.449219 13.480469 32.046875 12.910156 30.480469 C 12.34375 28.914062 12.058594 27.332031 12.058594 25.730469 C 12.058594 24.125 12.34375 22.535156 12.910156 20.953125 C 13.480469 19.375 14.347656 17.960938 15.511719 16.707031 C 16.679688 15.453125 18.140625 14.4375 19.898438 13.660156 C 21.65625 12.882812 23.726562 12.496094 26.105469 12.496094 C 26.960938 12.496094 27.730469 12.574219 28.414062 12.726562 C 29.097656 12.882812 29.714844 13.039062 30.257812 13.195312 C 30.648438 13.324219 31.003906 13.421875 31.328125 13.488281 C 31.648438 13.550781 31.964844 13.582031 32.277344 13.582031 L 32.277344 17.890625 L 31.886719 17.890625 C 31.734375 17.085938 31.449219 16.421875 31.03125 15.890625 C 30.621094 15.363281 30.136719 14.957031 29.582031 14.671875 C 29.023438 14.386719 28.429688 14.1875 27.796875 14.070312 C 27.164062 13.953125 26.546875 13.894531 25.953125 13.894531 Z M 25.953125 13.894531 "/>
<path style=" stroke:none;fill-rule:nonzero;fill:rgb(82.749939%,61.569214%,36.468506%);fill-opacity:1;" d="M 17.769531 39.886719 L 16.335938 39.421875 L 27.277344 9.8125 L 28.714844 10.203125 Z M 17.769531 39.886719 "/>
</g>
</svg>
